<svg width="200" height="229" viewBox="0 0 200 229" fill="none" xmlns="http://www.w3.org/2000/svg">
<path d="M112.435 36L73.428 75.0072L87.7056 128.29L106.87 133.375L104.85 125.888L93.1812 122.812L81.9117 80.751L123.977 92.0205L135.249 134.086L128.888 132.329L130.911 139.814L140.993 142.572L180 103.562L165.718 50.2754L112.435 36V36ZM83.6468 74.2726L114.436 43.4832L156.504 54.7483L125.71 85.54L83.6468 74.2726V74.2726ZM172.517 101.559L141.721 132.349L130.453 90.281L161.247 59.4894L172.517 101.559Z" fill="url(#paint0_linear)"/>
<path d="M113.292 102.703L94.0184 97.4698L96.0413 104.957L107.814 108.181L119.086 150.247L77.0226 138.977L65.7532 96.9139L72.0614 98.5618L70.0386 91.0765L60.0072 88.4324L21 127.437L35.2776 180.722L88.5624 195L127.57 155.993L113.292 102.703V102.703ZM28.481 129.438L59.2748 98.6447L70.5465 140.71L39.7527 171.502L28.481 129.438V129.438ZM86.557 187.521L44.4915 176.249L75.2853 145.453L117.351 156.725L86.557 187.521V187.521Z" fill="url(#paint1_linear)"/>
<defs>
<linearGradient id="paint0_linear" x1="53.2897" y1="67.8572" x2="149.877" y2="112.896" gradientUnits="userSpaceOnUse">
<stop stop-color="#783192"/>
<stop offset="1" stop-color="#59BCC8"/>
</linearGradient>
<linearGradient id="paint1_linear" x1="-16.3851" y1="93.22" x2="80.1998" y2="138.258" gradientUnits="userSpaceOnUse">
<stop stop-color="#783192"/>
<stop offset="1" stop-color="#59BCC8"/>
</linearGradient>
</defs>
</svg>
