<svg data-v-423bf9ae="" xmlns="http://www.w3.org/2000/svg" viewBox="0 0 305.49451593605494 181" class="iconAboveSlogan"><!----><!----><!----><g data-v-423bf9ae="" id="d150bf66-8022-476f-ac53-0f690e5f97be" fill="#8FF9BD" transform="matrix(5.494505405426025,0,0,5.494505405426025,-3.4066011905670166,85.74725341796875)"><path d="M3.05 14.06L3.05 9.91L6.10 9.91L6.10 7.56L3.05 7.56L3.05 6.05L7.13 6.05L7.13 3.42L0.62 3.42L0.62 14.06ZM12.45 11.52C12.45 11.70 12.35 11.80 12.17 11.80L10.12 11.80C9.94 11.80 9.84 11.70 9.84 11.52L9.84 10.95C9.84 10.77 9.94 10.67 10.12 10.67L12.17 10.67C12.35 10.67 12.45 10.77 12.45 10.95ZM12.98 14.06C14.24 14.06 14.87 13.41 14.87 12.12L14.87 7.77C14.87 6.48 14.21 5.84 12.91 5.84L7.76 5.84L7.76 8.13L12.03 8.13C12.31 8.13 12.45 8.27 12.45 8.55L12.45 9.17C12.32 9.11 12.17 9.07 11.98 9.07L9.23 9.07C8.04 9.07 7.43 9.70 7.43 10.98L7.43 12.19C7.43 13.44 8.04 14.06 9.23 14.06ZM17.92 5.17C18.27 5.17 18.45 4.98 18.45 4.62L18.45 3.68C18.45 3.32 18.27 3.14 17.92 3.14L16.60 3.14C16.23 3.14 16.04 3.32 16.04 3.68L16.04 4.62C16.04 4.98 16.21 5.17 16.55 5.17ZM18.47 14.06L18.47 5.84L16.04 5.84L16.04 14.06ZM22.13 14.06L22.13 8.68C22.13 8.40 22.27 8.26 22.55 8.26L24.35 8.26L24.35 5.84L21.63 5.84C20.30 5.84 19.70 6.50 19.70 7.77L19.70 14.06ZM35.11 14.06C36.39 14.06 37.03 13.44 37.03 12.19L37.03 5.36C37.03 4.06 36.39 3.42 35.11 3.42L29.34 3.42L29.34 14.06ZM34.61 10.96C34.61 11.24 34.47 11.38 34.19 11.38L31.77 11.38L31.77 6.09L34.19 6.09C34.47 6.09 34.61 6.23 34.61 6.51ZM40.08 5.17C40.43 5.17 40.61 4.98 40.61 4.62L40.61 3.68C40.61 3.32 40.43 3.14 40.08 3.14L38.77 3.14C38.39 3.14 38.21 3.32 38.21 3.68L38.21 4.62C38.21 4.98 38.37 5.17 38.71 5.17ZM40.63 14.06L40.63 5.84L38.21 5.84L38.21 14.06ZM47.87 14.06L47.87 11.63L44.65 11.63C44.37 11.63 44.23 11.48 44.23 11.19L44.23 8.69C44.23 8.41 44.37 8.27 44.65 8.27L47.84 8.27L47.84 5.84L43.72 5.84C42.45 5.84 41.80 6.48 41.80 7.77L41.80 12.19C41.80 13.44 42.46 14.06 43.76 14.06ZM53.82 8.95C53.82 9.13 53.72 9.23 53.54 9.23L51.49 9.23C51.31 9.23 51.21 9.13 51.21 8.95L51.21 8.37C51.21 8.19 51.31 8.09 51.49 8.09L53.54 8.09C53.72 8.09 53.82 8.19 53.82 8.37ZM55.87 14.06L55.87 11.76L51.63 11.76C51.35 11.76 51.21 11.62 51.21 11.34L51.21 10.72C51.34 10.79 51.49 10.82 51.65 10.82L54.43 10.82C55.62 10.82 56.22 10.19 56.22 8.92L56.22 7.71C56.22 6.47 55.62 5.84 54.43 5.84L50.68 5.84C49.42 5.84 48.79 6.48 48.79 7.77L48.79 12.12C48.79 13.41 49.45 14.06 50.75 14.06Z"></path></g><!----><g data-v-423bf9ae="" id="84522012-22ad-48e1-83b5-d2e5a240f8d7" transform="matrix(1.1519705057144165,0,0,1.1519705057144165,95.91725158691406,-11.51970386505127)" stroke="none" fill="#8FF9BD"><path d="M26.53 11.559L1.858 23.755l19.567-.71L45.955 10 26.53 11.559zm-2.351 6.292c-1.714.655-3.201.929-3.322.613-.122-.318 1.169-1.105 2.882-1.761 1.713-.655 3.201-.929 3.322-.612.122.317-1.169 1.105-2.882 1.76zM20.576 24.037l-18.292.71 11.06 29.493 18.291 2.41-11.059-32.613zM9.602 34.523c-.946.377-2.281-.742-2.981-2.5-.699-1.758-.501-3.489.444-3.866.946-.377 2.28.742 2.981 2.5.7 1.758.501 3.489-.444 3.866zm6.464 17.039c-.953.358-2.267-.785-2.935-2.556-.669-1.771-.438-3.497.514-3.856.953-.36 2.266.784 2.935 2.555.669 1.769.439 3.496-.514 3.857zM20.46 34.79c-1.063.406-2.527-.84-3.268-2.784-.739-1.944-.478-3.848.586-4.252 1.065-.407 2.528.84 3.268 2.783.742 1.943.479 3.848-.586 4.253zm6.115 18.433c-1.039.346-2.405-.952-3.05-2.896-.646-1.943-.327-3.801.711-4.146 1.039-.346 2.406.952 3.051 2.896.646 1.944.327 3.8-.712 4.146zM81.827 55.799L70.343 88.127l16.164-11.346L97 48l-15.173 7.799zm-4.574 23.354c-1.008 1.819-2.241 3.064-2.756 2.775-.513-.282-.112-1.986.895-3.805 1.009-1.816 2.242-3.061 2.756-2.775s.113 1.99-.895 3.805zm8.081-11.922c-.967 1.745-2.169 2.932-2.683 2.646-.515-.286-.146-1.931.823-3.679.968-1.745 2.169-2.932 2.682-2.646.514.287.147 1.931-.822 3.679zm4.761-8.789c-.513-.284-.145-1.933.823-3.679.969-1.746 2.169-2.932 2.683-2.646.514.284.146 1.931-.822 3.678-.968 1.746-2.17 2.933-2.684 2.647zM50.209 36.09l5.008-1.863-8.127-23.944-25.097 13.754 10.776 32.612 11.871-7.395 5.144-12.598.425-.566zM35.627 50.458c-1.736 0-3.143-1.756-3.143-3.923 0-2.166 1.407-3.923 3.143-3.923s3.144 1.757 3.144 3.923c0 2.167-1.408 3.923-3.144 3.923zm8.84-27.13c-1.684 0-3.049-1.649-3.049-3.685 0-2.035 1.365-3.685 3.049-3.685s3.048 1.65 3.048 3.685c0 2.036-1.365 3.685-3.048 3.685z"></path><path d="M51.484 38.642L38.865 69.551l30.628 18.576 11.483-32.896-29.492-16.589zm-4.206 32.471c-1.906 0-3.45-1.668-3.45-3.723 0-2.057 1.543-3.723 3.45-3.723s3.45 1.666 3.45 3.723c.001 2.055-1.543 3.723-3.45 3.723zm3.261-22.415c0-.025.004-.051.004-.075.035-2.163 1.628-3.907 3.588-3.907.66 0 1.277.201 1.809.546 1.066.691 1.784 1.969 1.784 3.437 0 2.199-1.608 3.981-3.593 3.981-1.984 0-3.592-1.783-3.592-3.982zm5.342 14.366c0-2.197 1.607-3.981 3.592-3.981s3.592 1.784 3.592 3.981c0 2.201-1.607 3.982-3.592 3.982s-3.592-1.78-3.592-3.982zm9.404 18.588c-2.062 0-3.733-1.783-3.733-3.981 0-2.199 1.671-3.982 3.733-3.982 2.063 0 3.734 1.783 3.734 3.982.001 2.198-1.67 3.981-3.734 3.981zm6.948-18.953c-1.983 0-3.592-1.782-3.592-3.98 0-2.2 1.608-3.983 3.592-3.983s3.592 1.783 3.592 3.983c0 2.198-1.608 3.98-3.592 3.98zM68.499 31.907L51.91 38.074l29.917 16.589L97 47.007l-28.501-15.1zm-3.857 9.661c-.261.682-2.015.646-3.916-.083-1.104-.423-2.014-.986-2.531-1.518l-.438-1.036a.454.454 0 0 1 .054-.096c.387-.581 2.056-.514 3.861.178 1.901.728 3.23 1.872 2.97 2.555zm9.122 4.773c-.262.683-2.016.646-3.917-.082s-3.229-1.872-2.968-2.554c.261-.683 2.015-.646 3.915.082 1.901.728 3.231 1.872 2.97 2.554zm.566-8.601c-.26.682-2.015.645-3.915-.083-1.901-.728-3.231-1.871-2.97-2.554.262-.682 2.013-.645 3.916.083 1.901.728 3.23 1.87 2.969 2.554zm8.225 13.28c-.262.683-2.015.647-3.916-.081-1.901-.728-3.229-1.871-2.971-2.554.262-.684 2.016-.646 3.917.082s3.231 1.87 2.97 2.553zm.047-8.791c-.262.682-2.013.646-3.916-.083-1.902-.727-3.229-1.871-2.969-2.554.26-.682 2.014-.646 3.915.083 1.901.729 3.231 1.871 2.97 2.554zm4.637 4.266c-1.9-.728-3.229-1.871-2.969-2.553.262-.684 2.016-.646 3.917.082 1.901.728 3.229 1.872 2.97 2.554-.262.682-2.016.646-3.918-.083z"></path></g><!----><g data-v-423bf9ae="" id="effd872c-254c-4e99-8c24-2224c7983ea9" fill="#8FF9BD" transform="matrix(0.5892421007156372,0,0,0.5892421007156372,38.903709411621094,203.36126708984375)"><path d="M2.18 8.18L5.31 8.18C7.28 8.18 8.50 7.03 8.50 5.19C8.50 3.37 7.28 2.21 5.31 2.21L1.13 2.21L1.13 11.48L2.18 11.48ZM5.24 3.21C6.69 3.21 7.45 3.96 7.45 5.19C7.45 6.44 6.69 7.20 5.24 7.20L2.18 7.20L2.18 3.21ZM17.98 7.92L21.20 7.92L23.44 11.48L24.68 11.48L22.25 7.74C23.28 7.50 24.49 6.90 24.49 5.11C24.49 3.35 23.27 2.21 21.36 2.21L16.93 2.21L16.93 11.48L17.98 11.48ZM17.98 3.21L21.24 3.21C22.55 3.21 23.44 3.93 23.44 5.11C23.44 6.55 22.18 6.93 21.18 6.93L17.98 6.93ZM37.41 2.10C34.59 2.10 32.70 4.21 32.70 6.85C32.70 9.48 34.59 11.59 37.41 11.59C40.22 11.59 42.11 9.48 42.11 6.85C42.11 4.21 40.22 2.10 37.41 2.10ZM37.41 10.57C35.15 10.57 33.75 8.93 33.75 6.85C33.75 4.76 35.15 3.12 37.41 3.12C39.66 3.12 41.06 4.76 41.06 6.85C41.06 8.93 39.66 10.57 37.41 10.57ZM57.09 2.21L53.89 10.29L50.68 2.21L49.53 2.21L53.28 11.48L54.49 11.48L58.24 2.21ZM69.97 2.21L68.66 2.21L64.72 11.48L65.88 11.48L67.02 8.79L71.61 8.79L72.74 11.48L73.91 11.48ZM67.42 7.83L69.31 3.30L71.20 7.83ZM87.92 6.75C88.58 6.45 89.17 5.85 89.17 4.66C89.17 3.54 88.42 2.21 86.24 2.21L82.08 2.21L82.08 11.48L86.48 11.48C88.59 11.48 89.64 10.43 89.64 9.04C89.64 7.66 88.70 7 87.92 6.75ZM83.13 3.21L86.35 3.21C87.63 3.21 88.12 3.98 88.12 4.75C88.12 5.88 87.21 6.36 86.24 6.36L83.13 6.36ZM86.59 10.49L83.13 10.49L83.13 7.31L86.48 7.31C87.95 7.31 88.59 8.09 88.59 8.96C88.59 9.93 87.86 10.49 86.59 10.49ZM98.35 2.21L98.35 11.48L104.45 11.48L104.45 10.47L99.40 10.47L99.40 2.21ZM115.16 7.81L119.04 2.21L117.77 2.21L114.63 6.72L111.50 2.21L110.22 2.21L114.11 7.81L114.11 11.48L115.16 11.48ZM143.85 3.22L143.85 2.21L137.16 2.21L137.16 11.48L138.21 11.48L138.21 7.46L143.23 7.46L143.23 6.44L138.21 6.44L138.21 3.22ZM155.72 2.21L154.41 2.21L150.47 11.48L151.63 11.48L152.77 8.79L157.36 8.79L158.49 11.48L159.66 11.48ZM153.17 7.83L155.06 3.30L156.95 7.83ZM168.88 2.21L167.83 2.21L167.83 11.48L168.88 11.48ZM179.20 7.92L182.42 7.92L184.66 11.48L185.91 11.48L183.47 7.74C184.51 7.50 185.71 6.90 185.71 5.11C185.71 3.35 184.49 2.21 182.59 2.21L178.15 2.21L178.15 11.48L179.20 11.48ZM179.20 3.21L182.46 3.21C183.78 3.21 184.66 3.93 184.66 5.11C184.66 6.55 183.40 6.93 182.41 6.93L179.20 6.93ZM210.34 6.75C210.99 6.45 211.58 5.85 211.58 4.66C211.58 3.54 210.84 2.21 208.66 2.21L204.50 2.21L204.50 11.48L208.89 11.48C211.01 11.48 212.06 10.43 212.06 9.04C212.06 7.66 211.12 7 210.34 6.75ZM205.55 3.21L208.77 3.21C210.04 3.21 210.53 3.98 210.53 4.75C210.53 5.88 209.62 6.36 208.66 6.36L205.55 6.36ZM209.01 10.49L205.55 10.49L205.55 7.31L208.89 7.31C210.36 7.31 211.01 8.09 211.01 8.96C211.01 9.93 210.28 10.49 209.01 10.49ZM221.38 4.65C221.38 4.03 221.75 3.08 223.85 3.08C225.54 3.08 226.32 3.82 226.44 4.75L227.51 4.75C227.43 3.36 226.31 2.10 223.85 2.10C221.52 2.10 220.36 3.15 220.36 4.66C220.36 7.84 226.70 6.69 226.70 8.96C226.70 10.05 225.72 10.60 224.15 10.60C222.54 10.60 221.24 10.05 221.17 8.71L220.08 8.71C220.22 10.37 221.34 11.59 224.08 11.59C226.37 11.59 227.75 10.64 227.75 8.92C227.75 5.68 221.38 6.80 221.38 4.65ZM242.84 2.21L239.64 10.29L236.43 2.21L235.28 2.21L239.04 11.48L240.24 11.48L243.99 2.21ZM266.06 2.21L262.15 2.21L262.15 11.48L266.06 11.48C268.27 11.48 270.31 9.74 270.31 6.85C270.31 3.95 268.27 2.21 266.06 2.21ZM266.01 10.49L263.20 10.49L263.20 3.21L266.01 3.21C267.99 3.21 269.26 4.86 269.26 6.85C269.26 8.83 267.99 10.49 266.01 10.49ZM280.06 2.21L279.01 2.21L279.01 11.48L280.06 11.48ZM293.30 10.57C291.05 10.57 289.79 8.93 289.79 6.85C289.79 4.76 291.05 3.12 293.30 3.12C294.83 3.12 295.83 3.85 296.31 4.98L297.42 4.98C296.83 3.29 295.32 2.10 293.22 2.10C290.43 2.10 288.74 4.21 288.74 6.85C288.74 9.48 290.43 11.59 293.22 11.59C295.32 11.59 296.83 10.40 297.42 8.71L296.31 8.71C295.83 9.84 294.83 10.57 293.30 10.57ZM312.80 3.22L312.80 2.21L305.98 2.21L305.98 11.48L312.80 11.48L312.80 10.47L307.03 10.47L307.03 7.35L312.19 7.35L312.19 6.33L307.03 6.33L307.03 3.22ZM335.45 2.10C332.67 2.10 330.89 4.21 330.89 6.85C330.89 9.48 332.60 11.59 335.43 11.59C337.11 11.59 338.20 10.74 338.79 9.84L338.79 11.48L339.75 11.48L339.75 6.55L335.40 6.55L335.40 7.50L338.79 7.50C338.79 9.44 337.19 10.57 335.51 10.57C333.26 10.57 331.94 8.93 331.94 6.85C331.94 4.76 333.28 3.12 335.54 3.12C336.95 3.12 337.96 3.74 338.52 4.73L339.67 4.73C338.98 3.18 337.44 2.10 335.45 2.10ZM352.76 2.21L351.44 2.21L347.51 11.48L348.67 11.48L349.80 8.79L354.40 8.79L355.53 11.48L356.69 11.48ZM350.21 7.83L352.10 3.30L353.99 7.83ZM372.67 2.21L369.40 6.61L366.09 2.21L364.87 2.21L364.87 11.48L365.92 11.48L365.92 3.81L369.40 8.22L372.83 3.81L372.83 11.48L373.88 11.48L373.88 2.21ZM389.97 3.22L389.97 2.21L383.15 2.21L383.15 11.48L389.97 11.48L389.97 10.47L384.20 10.47L384.20 7.35L389.35 7.35L389.35 6.33L384.20 6.33L384.20 3.22Z"></path></g></svg>