<svg width="180" height="180" viewBox="0 0 180 180" fill="none" xmlns="http://www.w3.org/2000/svg">
<path d="M53.802 153L180 141.833L137.934 108.337L53.802 153ZM31.948 46.3601L0 80.2877L33.988 65.8502L31.948 46.3601Z" fill="white"/>
<path d="M117.853 112.158L138.543 101.169L154.893 114.194L171.315 27L117.853 112.158ZM103.871 84.816L57.105 144.418L107.467 117.673L118.405 100.25L103.871 84.816ZM53.955 53.8872L37.627 45.2158L48.199 146.206L73.011 114.592L53.955 53.8872Z" fill="white"/>
<path d="M103.677 43.5889L74.377 99.5954L77.347 109.063L103.487 75.7601L121.661 95.0611L128.827 83.6478L103.677 43.5889Z" fill="white"/>
</svg>
